<?xml version="1.0" standalone="no"?>
<!DOCTYPE svg PUBLIC "-//W3C//DTD SVG 20010904//EN"
 "http://www.w3.org/TR/2001/REC-SVG-20010904/DTD/svg10.dtd">
<svg version="1.0" xmlns="http://www.w3.org/2000/svg"
 width="559.000000pt" height="447.000000pt" viewBox="0 0 559.000000 447.000000"
 preserveAspectRatio="xMidYMid meet">

<g transform="translate(0.000000,447.000000) scale(0.100000,-0.100000)"
fill="#000000" stroke="none">
<path d="M2686 2484 c-24 -23 -20 -70 6 -88 31 -22 91 -20 111 2 19 21 22 54
7 83 -14 25 -100 27 -124 3z"/>
<path d="M1930 2353 c-81 -6 -86 -9 -86 -48 0 -27 4 -35 18 -35 15 0 18 -9 18
-61 0 -47 -4 -65 -17 -74 -17 -13 -24 -55 -12 -65 4 -3 41 -4 83 -2 l76 4 0
93 c0 70 4 96 15 105 12 10 18 10 30 0 11 -9 15 -35 15 -106 l0 -94 85 0 85 0
0 30 c0 23 -4 30 -20 30 -18 0 -20 7 -20 63 0 126 -33 175 -111 164 -22 -3
-49 -13 -60 -23 -18 -16 -19 -16 -19 4 0 15 -6 21 -17 20 -10 -1 -38 -3 -63
-5z"/>
<path d="M2323 2349 c-42 -10 -43 -11 -43 -53 l0 -44 38 14 c50 18 83 17 110
-2 35 -25 26 -34 -35 -34 -69 0 -103 -16 -121 -54 -19 -38 -8 -73 31 -97 37
-23 97 -21 126 5 22 20 31 20 31 1 0 -8 7 -15 15 -16 8 0 39 -1 68 -1 l52 -1
3 37 c2 21 -1 36 -7 36 -7 0 -11 23 -11 54 0 126 -27 157 -144 162 -39 2 -90
-2 -113 -7z m122 -194 c0 -25 -4 -30 -24 -30 -32 0 -49 28 -31 50 7 9 23 15
34 13 16 -2 21 -10 21 -33z"/>
<path d="M2945 2345 c-85 -45 -67 -124 43 -179 37 -19 45 -56 12 -56 -21 0
-60 33 -60 50 0 6 -11 10 -25 10 -24 0 -25 -3 -25 -55 0 -47 3 -55 19 -55 10
0 21 7 24 15 5 12 11 12 44 -1 48 -20 111 -14 152 15 25 18 31 29 31 60 0 49
-14 66 -79 99 -30 15 -56 32 -58 38 -7 21 25 23 50 3 14 -10 35 -19 46 -19 18
0 21 6 21 40 0 39 0 40 -37 39 -21 0 -58 3 -83 6 -31 4 -54 1 -75 -10z"/>
<path d="M3295 2353 c-79 -7 -85 -10 -85 -48 0 -23 5 -35 14 -35 10 0 15 -20
18 -81 3 -74 6 -83 31 -105 34 -29 70 -30 119 -5 36 20 36 20 41 0 5 -17 12
-19 59 -15 29 3 63 5 76 6 18 0 22 6 22 34 0 26 -5 35 -21 39 -19 5 -20 11
-18 109 l3 103 -55 -3 c-92 -4 -99 -8 -99 -47 0 -24 5 -35 15 -35 12 0 15 -13
15 -59 0 -66 -18 -94 -45 -71 -12 10 -15 36 -15 116 0 93 -2 104 -17 102 -10
-1 -36 -3 -58 -5z"/>
<path d="M2698 2343 c-47 -4 -48 -5 -48 -39 0 -24 5 -34 15 -34 12 0 15 -14
15 -65 0 -52 -3 -65 -16 -65 -11 0 -14 -9 -12 -36 l3 -36 83 1 c45 0 89 0 97
1 10 0 15 11 15 35 0 28 -4 35 -20 35 -19 0 -20 7 -20 105 l0 105 -32 -2 c-18
-1 -54 -3 -80 -5z"/>
<path d="M3648 2174 c-22 -11 -28 -22 -28 -48 0 -42 26 -66 73 -66 49 0 80 38
65 81 -17 49 -59 61 -110 33z"/>
</g>
</svg>
