<?xml version="1.0" standalone="no"?>
<!DOCTYPE svg PUBLIC "-//W3C//DTD SVG 20010904//EN"
 "http://www.w3.org/TR/2001/REC-SVG-20010904/DTD/svg10.dtd">
<svg version="1.0" xmlns="http://www.w3.org/2000/svg"
 width="200.000000pt" height="62.000000pt" viewBox="0 0 200.000000 62.000000"
 preserveAspectRatio="xMidYMid meet">

<g transform="translate(0.000000,62.000000) scale(0.100000,-0.100000)"
fill="#000000" stroke="none">
<path d="M886 564 c-24 -23 -20 -70 6 -88 31 -22 91 -20 111 2 19 21 22 54 7
83 -14 25 -100 27 -124 3z"/>
<path d="M115 431 l-60 -6 -3 -37 c-2 -29 0 -38 12 -38 23 0 23 -128 1 -136
-9 -4 -15 -19 -15 -35 l0 -29 80 0 80 0 0 94 c0 71 4 97 15 106 12 10 18 10
30 0 11 -9 15 -35 15 -106 l0 -94 85 0 85 0 0 30 c0 23 -4 30 -20 30 -18 0
-20 7 -20 63 0 126 -33 175 -111 164 -22 -3 -49 -13 -60 -23 -18 -16 -19 -16
-19 4 0 15 -6 21 -17 20 -10 -1 -45 -4 -78 -7z"/>
<path d="M523 429 c-42 -10 -43 -11 -43 -53 l0 -44 38 14 c50 18 83 17 110 -2
35 -25 26 -34 -35 -34 -69 0 -103 -16 -121 -54 -19 -38 -8 -73 31 -97 37 -23
97 -21 126 5 23 21 28 20 34 -5 4 -15 11 -20 22 -15 9 3 39 6 66 6 l49 0 0 35
c0 19 -4 35 -10 35 -6 0 -10 26 -10 59 0 118 -31 153 -145 157 -38 2 -89 -2
-112 -7z m122 -194 c0 -25 -4 -30 -24 -30 -32 0 -49 28 -31 50 7 9 23 15 34
13 16 -2 21 -10 21 -33z"/>
<path d="M1145 425 c-85 -45 -67 -124 43 -179 37 -19 45 -56 12 -56 -21 0 -60
33 -60 50 0 6 -11 10 -25 10 -24 0 -25 -3 -25 -55 0 -47 3 -55 19 -55 10 0 21
7 24 15 5 12 11 12 44 -1 48 -20 111 -14 152 15 25 18 31 29 31 60 0 49 -14
66 -79 99 -30 15 -56 32 -58 38 -7 21 25 23 50 3 14 -10 35 -19 46 -19 18 0
21 6 21 40 0 39 0 40 -37 39 -21 0 -58 3 -83 6 -31 4 -54 1 -75 -10z"/>
<path d="M1495 433 c-79 -7 -85 -10 -85 -48 0 -23 5 -35 14 -35 10 0 15 -20
18 -81 3 -74 6 -83 31 -105 34 -29 70 -30 120 -4 l37 20 0 -21 c0 -19 4 -21
31 -15 17 3 53 6 80 6 49 0 49 0 49 34 0 25 -5 35 -20 39 -18 5 -20 14 -20
112 l0 106 -47 -6 c-103 -14 -103 -13 -103 -51 0 -24 5 -34 15 -34 12 0 15
-13 15 -59 0 -66 -18 -94 -45 -71 -12 10 -15 36 -15 116 0 93 -2 104 -17 102
-10 -1 -36 -3 -58 -5z"/>
<path d="M898 423 c-47 -4 -48 -5 -48 -39 0 -24 5 -34 15 -34 12 0 15 -14 15
-65 0 -51 -3 -65 -15 -65 -10 0 -15 -11 -15 -35 l0 -35 85 -1 c47 -1 91 -2 98
-3 7 -1 13 14 15 37 3 32 0 37 -17 37 -20 0 -21 6 -21 105 l0 105 -32 -2 c-18
-1 -54 -3 -80 -5z"/>
<path d="M1848 254 c-22 -11 -28 -22 -28 -48 0 -42 26 -66 73 -66 49 0 80 38
65 81 -17 49 -59 61 -110 33z"/>
</g>
</svg>
